HIERARCHY
ROOT Hips
{
	OFFSET 0.000000 0.000000 0.000000
	CHANNELS 6 Xposition Yposition Zposition Yrotation Xrotation Zrotation 
	JOINT LeftHip
	{
		OFFSET 0.086086 -0.000245 0.000027
		CHANNELS 3 Yrotation Xrotation Zrotation
		JOINT LeftKnee
		{
			OFFSET 0.000000 -0.456850 0.000056
			CHANNELS 3 Yrotation Xrotation Zrotation
			JOINT LeftAnkle
			{
				OFFSET 0.000000 -0.415733 0.000025
				CHANNELS 3 Yrotation Xrotation Zrotation
				JOINT LeftToe
				{
					OFFSET 0.000000 -0.078949 0.181402
					CHANNELS 3 Yrotation Xrotation Zrotation
					End Site
					{
						OFFSET 0.000000 0.000000 0.000000
					}
				}
			}
		}
	}
	JOINT RightHip
	{
		OFFSET -0.086086 -0.000223 0.000025
		CHANNELS 3 Yrotation Xrotation Zrotation
		JOINT RightKnee
		{
			OFFSET 0.000000 -0.456850 0.000056
			CHANNELS 3 Yrotation Xrotation Zrotation
			JOINT RightAnkle
			{
				OFFSET 0.000000 -0.415733 0.000025
				CHANNELS 3 Yrotation Xrotation Zrotation
				JOINT RightToe
				{
					OFFSET 0.000000 -0.078949 0.181402
					CHANNELS 3 Yrotation Xrotation Zrotation
					End Site
					{
						OFFSET 0.000000 0.000000 0.000000
					}
				}
			}
		}
	}
	JOINT Chest
	{
		OFFSET 0.000000 0.105171 -0.011686
		CHANNELS 3 Yrotation Xrotation Zrotation
		JOINT Chest3
		{
			OFFSET 0.000000 0.217053 -0.010445
			CHANNELS 3 Yrotation Xrotation Zrotation
			JOINT Chest4
			{
				OFFSET 0.000000 0.103719 0.000096
				CHANNELS 3 Yrotation Xrotation Zrotation
				JOINT Neck
				{
					OFFSET 0.000000 0.140113 0.000000
					CHANNELS 3 Yrotation Xrotation Zrotation
					JOINT Head
					{
						OFFSET 0.000000 0.094237 -0.000022
						CHANNELS 3 Yrotation Xrotation Zrotation
						End Site
						{
							OFFSET 0.000000 0.000000 0.000000
						}
					}
				}
				JOINT LeftCollar
				{
					OFFSET 0.027026 0.078483 0.000000
					CHANNELS 3 Yrotation Xrotation Zrotation
					JOINT LeftShoulder
					{
						OFFSET 0.127025 0.000000 0.000000
						CHANNELS 3 Yrotation Xrotation Zrotation
						JOINT LeftElbow
						{
							OFFSET 0.299989 0.000000 0.000000
							CHANNELS 3 Yrotation Xrotation Zrotation
							JOINT LeftWrist
							{
								OFFSET 0.248186 0.000000 -0.000034
								CHANNELS 3 Yrotation Xrotation Zrotation
								End Site
								{
									OFFSET 0.000000 0.000000 0.000000
								}
							}
						}
					}
				}
				JOINT RightCollar
				{
					OFFSET -0.027026 0.078483 0.000000
					CHANNELS 3 Yrotation Xrotation Zrotation
					JOINT RightShoulder
					{
						OFFSET -0.127025 0.000000 0.000000
						CHANNELS 3 Yrotation Xrotation Zrotation
						JOINT RightElbow
						{
							OFFSET -0.299989 0.000000 0.000000
							CHANNELS 3 Yrotation Xrotation Zrotation
							JOINT RightWrist
							{
								OFFSET -0.248186 0.000000 -0.000034
								CHANNELS 3 Yrotation Xrotation Zrotation
								End Site
								{
									OFFSET 0.000000 0.000000 0.000000
								}
							}
						}
					}
				}
			}
		}
	}
}
MOTION
Frames: 11
Frame Time: 0.016667
0.000000 0.968481 0.000000 0.000000 6.340192 0.000000 0.000000 -3.587706 0.000000 0.000000 1.905768 0.000000 0.000000 -4.658254 0.000000 0.000000 -0.000000 0.000000 0.000000 -3.591006 0.000000 0.000000 1.872585 0.000000 0.000000 -4.621771 0.000000 0.000000 -0.000000 0.000000 0.000000 -6.340192 0.000000 0.000000 -5.832252 0.000000 0.000000 5.832252 0.000000 0.000000 12.610213 0.000000 0.000000 -9.243752 0.000000 0.000000 -0.000000 0.000000 0.000000 -0.000000 0.000000 -2.309063 0.000000 0.000000 2.309063 -0.000000 0.000000 0.000000 -0.000000 0.000000 0.000000 -0.000000 0.000000 2.309063 -0.000000 0.000000 -2.309063 0.000000 0.000000 
2.461870 0.969877 4.665416 -173.883378 0.794790 -1.183010 2.192235 2.186021 5.274803 -0.289519 0.922371 -0.051911 0.611540 -3.440177 -2.802277 0.000886 -0.190375 -0.478509 -4.265453 1.745088 -1.800960 -0.438204 1.408921 -0.067761 -17.899140 -5.215721 2.773851 0.000000 -0.000000 0.000000 3.517199 -0.006194 -0.204099 3.144929 -5.838346 -0.182353 1.178489 5.827571 0.051759 -1.922089 16.201915 1.523470 -4.117462 -5.856471 3.519058 -4.944005 13.411187 -7.764142 -0.652502 -22.575046 -79.372505 3.921942 46.794257 14.157207 -3.375821 6.440133 17.664511 -1.318930 12.614992 10.323144 -3.240766 -23.474753 79.691685 -5.434093 50.837342 -13.300099 4.918818 14.368500 4.371897 
2.462017 0.969341 4.665114 -173.865268 0.837488 -1.189694 2.206503 2.173277 5.281784 -0.316788 0.899100 -0.031450 0.604177 -3.436151 -2.820762 0.003255 -0.380778 -0.957011 -4.258901 1.739154 -1.788467 -0.478054 1.394663 -0.053525 -17.889365 -5.223287 2.773592 0.000000 -0.000000 0.000000 3.478952 0.025615 -0.206527 3.111167 -5.810070 -0.184610 1.165709 5.838199 0.049436 -1.879208 16.159264 1.512816 -4.035831 -5.938180 3.485877 -4.931131 13.264278 -7.814049 -0.650035 -22.519192 -79.301816 3.947135 46.750274 14.114277 -3.366438 6.435256 17.722216 -1.261682 12.473393 10.433273 -3.242251 -23.296103 79.641293 -5.293284 50.809551 -13.160414 4.896818 14.377704 4.252457 
2.462157 0.968907 4.664798 -173.850030 0.876780 -1.195157 2.212869 2.162651 5.288919 -0.336162 0.878391 -0.013939 0.599731 -3.429729 -2.838466 0.005873 -0.520860 -1.292132 -4.251048 1.733608 -1.776949 -0.515254 1.382175 -0.041488 -17.880297 -5.228043 2.774391 0.000000 -0.000000 0.000000 3.443931 0.054723 -0.209061 3.080279 -5.784197 -0.186951 1.154005 5.847921 0.047210 -1.837418 16.123035 1.503303 -3.956312 -6.007830 3.454865 -4.919172 13.126817 -7.862923 -0.641747 -22.465971 -79.233092 3.967613 46.715200 14.066452 -3.360983 6.433463 17.770426 -1.205297 12.338268 10.538747 -3.236964 -23.123358 79.591178 -5.166886 50.788471 -13.030594 4.874380 14.385413 4.132243 
2.462289 0.968635 4.664461 -173.839710 0.911814 -1.198467 2.204866 2.153951 5.296357 -0.341335 0.862158 -0.001309 0.600410 -3.419131 -2.855357 0.006940 -0.577116 -1.388112 -4.240049 1.726898 -1.767039 -0.549733 1.373125 -0.032661 -17.871631 -5.228374 2.776742 0.000000 -0.000000 0.000000 3.413235 0.078788 -0.212336 3.053302 -5.762810 -0.189940 1.143746 5.855953 0.044920 -1.796054 16.098375 1.496253 -3.877940 -6.055840 3.428030 -4.907802 13.002177 -7.910425 -0.619829 -22.414952 -79.165942 3.977940 46.693728 14.006647 -3.361498 6.435537 17.800952 -1.150175 12.210799 10.637449 -3.221213 -22.956161 79.542307 -5.062004 50.776797 -12.913400 4.850711 14.389163 4.004711 
2.462415 0.968466 4.664110 -173.832260 0.943441 -1.200567 2.188963 2.147376 5.303977 -0.338613 0.848489 0.008356 0.604000 -3.406132 -2.871468 0.006786 -0.583031 -1.340705 -4.227752 1.720579 -1.758105 -0.581564 1.365842 -0.026046 -17.863672 -5.225897 2.780152 0.000000 -0.000000 0.000000 3.385763 0.100148 -0.215728 3.029200 -5.743827 -0.193023 1.134564 5.863080 0.042721 -1.755765 16.080141 1.490365 -3.801688 -6.091791 3.403427 -4.897342 12.887000 -7.956935 -0.592139 -22.366624 -79.100696 3.983609 46.681166 13.942022 -3.365921 6.440744 17.821990 -1.095924 12.089786 10.731510 -3.198627 -22.794793 79.493830 -4.971435 50.771822 -12.806028 4.826517 14.391417 3.876401 
2.462527 0.968324 4.663752 -173.824399 0.970804 -1.203062 2.176659 2.145644 5.311542 -0.339021 0.834205 0.017859 0.606788 -3.393663 -2.886119 0.006648 -0.588751 -1.293798 -4.218404 1.719701 -1.749219 -0.608320 1.357081 -0.020873 -17.858038 -5.222643 2.784201 0.000000 -0.000000 0.000000 3.361435 0.123124 -0.217472 3.007743 -5.723403 -0.194640 1.126438 5.870754 0.041168 -1.719566 16.059341 1.482923 -3.732569 -6.132369 3.377483 -4.889703 12.780699 -8.002638 -0.576473 -22.325008 -79.040346 3.996319 46.672311 13.889106 -3.371980 6.449954 17.848629 -1.042092 11.978104 10.822737 -3.172917 -22.646053 79.443291 -4.888017 50.772102 -12.709934 4.803451 14.398063 3.766158 
2.462624 0.968188 4.663383 -173.815013 0.991821 -1.206717 2.173028 2.152397 5.319054 -0.347681 0.816590 0.028669 0.607729 -3.382074 -2.898952 0.006910 -0.611043 -1.295742 -4.214369 1.728559 -1.739750 -0.626991 1.344524 -0.017324 -17.856554 -5.218653 2.788884 0.000000 -0.000000 0.000000 3.341419 0.150664 -0.216981 2.989919 -5.698917 -0.194270 1.119760 5.879958 0.040480 -1.689316 16.031367 1.472245 -3.673619 -6.186116 3.347932 -4.888376 12.685373 -8.047814 -0.585238 -22.294784 -78.984791 4.026338 46.667508 13.859392 -3.381334 6.467159 17.889958 -0.987904 11.879084 10.912075 -3.144312 -22.514540 79.389309 -4.807365 50.777403 -12.626031 4.782616 14.412132 3.684573 
2.462708 0.968080 4.663007 -173.805217 1.008576 -1.210769 2.172997 2.163990 5.326503 -0.359470 0.798357 0.039324 0.607871 -3.371016 -2.910324 0.007173 -0.633143 -1.298185 -4.213280 1.742861 -1.730317 -0.640588 1.330490 -0.015224 -17.857395 -5.213887 2.794208 0.000000 -0.000000 0.000000 3.324553 0.179822 -0.214849 2.974746 -5.672989 -0.192438 1.114139 5.889709 0.040437 -1.663152 16.000833 1.460028 -3.621795 -6.244484 3.317060 -4.889885 12.598940 -8.092215 -0.606044 -22.271209 -78.934152 4.063345 46.666390 13.841338 -3.392259 6.488371 17.936905 -0.934069 11.789364 10.998551 -3.112525 -22.395615 79.333295 -4.733852 50.787958 -12.553413 4.762804 14.430576 3.621052 
2.462777 0.967982 4.662634 -173.795078 1.026458 -1.214536 2.172839 2.172206 5.333624 -0.370050 0.784469 0.048240 0.606639 -3.362378 -2.920633 0.007430 -0.654925 -1.299961 -4.212287 1.754771 -1.721859 -0.655717 1.318694 -0.013255 -17.856715 -5.210259 2.799769 0.000000 -0.000000 0.000000 3.307263 0.206081 -0.211087 2.959045 -5.649634 -0.189143 1.108371 5.898504 0.040942 -1.638514 15.972572 1.448622 -3.572983 -6.298515 3.288123 -4.885686 12.514545 -8.135239 -0.619468 -22.244165 -78.891781 4.088152 46.662690 13.816931 -3.397475 6.502466 17.977297 -0.882360 11.701797 11.081110 -3.080492 -22.282251 79.276929 -4.673473 50.803026 -12.490810 4.742218 14.450157 3.562663 
2.462830 0.967892 4.662271 -173.785113 1.047641 -1.217788 2.170702 2.173269 5.340437 -0.377021 0.778101 0.054337 0.603912 -3.357515 -2.929825 0.007677 -0.676397 -1.300511 -4.209898 1.760697 -1.714753 -0.676525 1.311340 -0.010986 -17.851253 -5.208719 2.805171 0.000000 -0.000000 0.000000 3.287486 0.227032 -0.205063 2.940926 -5.630992 -0.183812 1.101763 5.905547 0.042153 -1.614505 15.949529 1.438118 -3.525438 -6.342777 3.260856 -4.869110 12.428969 -8.176847 -0.617182 -22.208010 -78.860773 4.092021 46.651654 13.779334 -3.390825 6.502212 18.004500 -0.832506 11.612839 11.158673 -3.046355 -22.171132 79.218853 -4.631827 50.827061 -12.438958 4.720155 14.472309 3.510057 
